<svg width="32" height="32" viewBox="0 0 32 32" fill="none" xmlns="http://www.w3.org/2000/svg">
<path d="M7.5415 12.1667C6.7915 12.1667 6.15262 11.9028 5.62484 11.375C5.09706 10.8472 4.83317 10.2083 4.83317 9.45833C4.83317 8.70833 5.09706 8.06944 5.62484 7.54167C6.15262 7.01389 6.7915 6.75 7.5415 6.75C8.2915 6.75 8.93039 7.01389 9.45817 7.54167C9.98595 8.06944 10.2498 8.70833 10.2498 9.45833C10.2498 10.2083 9.98595 10.8472 9.45817 11.375C8.93039 11.9028 8.2915 12.1667 7.5415 12.1667ZM4.4165 31.8333C3.9165 31.8333 3.48595 31.6875 3.12484 31.3958C2.76373 31.1042 2.58317 30.6944 2.58317 30.1667C1.9165 30.1667 1.34706 29.9236 0.874837 29.4375C0.402615 28.9514 0.166504 28.3889 0.166504 27.75V19.7083C0.166504 19.375 0.28456 19.0903 0.520671 18.8542C0.756782 18.6181 1.0415 18.5 1.37484 18.5H4.83317V17.3333C4.83317 16.4167 5.15262 15.6389 5.7915 15C6.43039 14.3611 7.22206 14.0417 8.1665 14.0417C8.63873 14.0417 9.11095 14.1458 9.58317 14.3542C10.0554 14.5625 10.4582 14.8472 10.7915 15.2083L12.7082 17.4167C12.9026 17.6111 13.104 17.8056 13.3123 18C13.5207 18.1944 13.7359 18.3611 13.9582 18.5H25.5832V4.625C25.5832 4.01389 25.3748 3.49306 24.9582 3.0625C24.5415 2.63194 24.0415 2.41667 23.4582 2.41667C23.1526 2.41667 22.8609 2.45833 22.5832 2.54167C22.3054 2.625 22.0693 2.77778 21.8748 3L19.7498 5.125C19.8609 5.59722 19.8748 6.06944 19.7915 6.54167C19.7082 7.01389 19.5415 7.47222 19.2915 7.91667L15.5415 4.33333C15.9582 4.02778 16.4165 3.84028 16.9165 3.77083C17.4165 3.70139 17.9165 3.75 18.4165 3.91667L20.5415 1.83333C20.9304 1.44444 21.3748 1.125 21.8748 0.875C22.3748 0.625 22.9026 0.5 23.4582 0.5C24.5693 0.5 25.5137 0.902778 26.2915 1.70833C27.0693 2.51389 27.4582 3.48611 27.4582 4.625V18.5H30.6248C30.9582 18.5 31.2429 18.6181 31.479 18.8542C31.7151 19.0903 31.8332 19.375 31.8332 19.7083V27.75C31.8332 28.4167 31.5901 28.9861 31.104 29.4583C30.6179 29.9306 30.0554 30.1667 29.4165 30.1667C29.4165 30.6944 29.236 31.1042 28.8748 31.3958C28.5137 31.6875 28.0693 31.8333 27.5415 31.8333H4.4165ZM2.58317 28.2917H29.4165C29.5832 28.2917 29.7151 28.2431 29.8123 28.1458C29.9096 28.0486 29.9582 27.9167 29.9582 27.75V20.375H2.0415V27.75C2.0415 27.9167 2.09012 28.0486 2.18734 28.1458C2.28456 28.2431 2.4165 28.2917 2.58317 28.2917ZM29.9582 28.2917H2.0415H29.9582Z" fill="#3A5295"/>
</svg>
