<svg width="32" height="21" viewBox="0 0 32 21" fill="none" xmlns="http://www.w3.org/2000/svg">
<path d="M1.12484 20.8333C0.84706 20.8333 0.617893 20.7431 0.437337 20.5625C0.256782 20.3819 0.166504 20.1528 0.166504 19.875V11.2083C0.166504 10.625 0.305393 10.0417 0.583171 9.45833C0.860948 8.875 1.27762 8.43055 1.83317 8.125V3.75C1.83317 2.69444 2.19428 1.80556 2.9165 1.08333C3.63873 0.361111 4.52762 0 5.58317 0H13.2498C13.8332 0 14.3609 0.131945 14.8332 0.395834C15.3054 0.659722 15.6943 1.01389 15.9998 1.45833C16.3054 1.01389 16.6873 0.659722 17.1457 0.395834C17.604 0.131945 18.1248 0 18.7082 0H26.4165C27.4721 0 28.361 0.361111 29.0832 1.08333C29.8054 1.80556 30.1665 2.69444 30.1665 3.75V8.125C30.7221 8.43055 31.1387 8.875 31.4165 9.45833C31.6943 10.0417 31.8332 10.625 31.8332 11.2083V19.875C31.8332 20.1528 31.7429 20.3819 31.5623 20.5625C31.3818 20.7431 31.1526 20.8333 30.8748 20.8333C30.5971 20.8333 30.3748 20.7431 30.2082 20.5625C30.0415 20.3819 29.9582 20.1528 29.9582 19.875V17.5H2.0415V19.875C2.0415 20.1528 1.95817 20.3819 1.7915 20.5625C1.62484 20.7431 1.40262 20.8333 1.12484 20.8333ZM16.9582 7.625H28.2915V3.75C28.2915 3.22222 28.104 2.77778 27.729 2.41667C27.354 2.05556 26.9165 1.875 26.4165 1.875H18.6248C18.1526 1.875 17.7568 2.0625 17.4373 2.4375C17.1179 2.8125 16.9582 3.25 16.9582 3.75V7.625ZM3.70817 7.625H15.0415V3.75C15.0415 3.25 14.8818 2.8125 14.5623 2.4375C14.2429 2.0625 13.8471 1.875 13.3748 1.875H5.58317C5.08317 1.875 4.64567 2.0625 4.27067 2.4375C3.89567 2.8125 3.70817 3.25 3.70817 3.75V7.625ZM2.0415 15.625H29.9582V11.2083C29.9582 10.7361 29.7984 10.3403 29.479 10.0208C29.1596 9.70139 28.7637 9.54167 28.2915 9.54167H3.70817C3.23595 9.54167 2.84012 9.70139 2.52067 10.0208C2.20123 10.3403 2.0415 10.7361 2.0415 11.2083V15.625ZM29.9582 15.625H2.0415H29.9582Z" fill="#3A5295"/>
</svg>
