<svg width="32" height="32" viewBox="0 0 32 32" fill="none" xmlns="http://www.w3.org/2000/svg">
<path d="M12.6 23.3999C12.4666 23.3999 12.3444 23.3776 12.2333 23.3332C12.1222 23.2888 12.0111 23.211 11.9 23.0999L5.86665 17.0665C5.66665 16.8665 5.56665 16.6221 5.56665 16.3332C5.56665 16.0443 5.66665 15.7999 5.86665 15.5999C6.06665 15.3999 6.29998 15.2999 6.56665 15.2999C6.83332 15.2999 7.06665 15.3999 7.26665 15.5999L12.6 20.9332L24.7 8.8332C24.9 8.6332 25.1389 8.5332 25.4166 8.5332C25.6944 8.5332 25.9333 8.6332 26.1333 8.8332C26.3333 9.0332 26.4333 9.27209 26.4333 9.54987C26.4333 9.82765 26.3333 10.0665 26.1333 10.2665L13.3 23.0999C13.1889 23.211 13.0778 23.2888 12.9667 23.3332C12.8555 23.3776 12.7333 23.3999 12.6 23.3999Z" fill="#3A5295"/>
</svg>
