<svg width="24" height="24" viewBox="0 0 24 24" fill="none" xmlns="http://www.w3.org/2000/svg">
<path d="M9.2501 12.0001C9.2501 11.9001 9.26677 11.8084 9.3001 11.7251C9.33344 11.6418 9.39177 11.5668 9.4751 11.5001L14.2251 6.7501C14.3251 6.6501 14.4584 6.6001 14.6251 6.6001C14.7918 6.6001 14.9251 6.6501 15.0251 6.7501C15.1584 6.88343 15.2168 7.02093 15.2001 7.1626C15.1834 7.30426 15.1251 7.43343 15.0251 7.5501L10.5751 12.0001L15.0251 16.4501C15.1251 16.5501 15.1793 16.6834 15.1876 16.8501C15.1959 17.0168 15.1418 17.1501 15.0251 17.2501C14.9084 17.3834 14.7709 17.4418 14.6126 17.4251C14.4543 17.4084 14.3168 17.3501 14.2001 17.2501L9.4751 12.5001C9.39177 12.4334 9.33344 12.3584 9.3001 12.2751C9.26677 12.1918 9.2501 12.1001 9.2501 12.0001Z" fill="black"/>
</svg>
