<svg width="18" height="18" viewBox="0 0 18 18" fill="none" xmlns="http://www.w3.org/2000/svg">
<path d="M9 0C4.03754 0 0 4.03754 0 9C0 13.9625 4.03754 18 9 18C13.9625 18 18 13.9625 18 9C18 4.03754 13.9625 0 9 0ZM9 1.38462C13.2141 1.38462 16.6154 4.78592 16.6154 9C16.6154 13.2141 13.2141 16.6154 9 16.6154C4.78592 16.6154 1.38462 13.2141 1.38462 9C1.38462 4.78592 4.78592 1.38462 9 1.38462ZM8.93492 4.84615C6.63369 4.84615 4.78108 6.69877 4.78108 9C4.78108 11.3012 6.63369 13.1538 8.93492 13.1538C10.5965 13.1538 12.0157 12.1569 12.6775 10.7515L11.4231 10.1679C10.9765 11.1171 10.0426 11.7692 8.93492 11.7692C7.35923 11.7692 6.16569 10.5757 6.16569 9C6.16569 7.42431 7.35923 6.23077 8.93492 6.23077C10.0426 6.23077 10.9772 6.88292 11.4231 7.83208L12.6782 7.24777C12.0164 5.84238 10.5965 4.84546 8.93492 4.84546V4.84615Z" fill="white" fill-opacity="0.6"/>
</svg>
