<svg width="20" height="17" viewBox="0 0 20 17" fill="none" xmlns="http://www.w3.org/2000/svg">
<path d="M1.95 16.3125C1.55 16.3125 1.20833 16.1649 0.925 15.8698C0.641667 15.5747 0.5 15.2187 0.5 14.8021V2.19792C0.5 1.78125 0.641667 1.42535 0.925 1.13021C1.20833 0.83507 1.55 0.6875 1.95 0.6875H18.05C18.45 0.6875 18.7917 0.83507 19.075 1.13021C19.3583 1.42535 19.5 1.78125 19.5 2.19792V14.8021C19.5 15.2187 19.3583 15.5747 19.075 15.8698C18.7917 16.1649 18.45 16.3125 18.05 16.3125H1.95ZM18.375 2.90104L10.4 8.36979C10.3333 8.40451 10.2708 8.4349 10.2125 8.46094C10.1542 8.48698 10.0833 8.5 10 8.5C9.91667 8.5 9.84583 8.48698 9.7875 8.46094C9.72917 8.4349 9.66667 8.40451 9.6 8.36979L1.625 2.90104V14.8021C1.625 14.9062 1.65417 14.9887 1.7125 15.0495C1.77083 15.1102 1.85 15.1406 1.95 15.1406H18.05C18.15 15.1406 18.2292 15.1102 18.2875 15.0495C18.3458 14.9887 18.375 14.9062 18.375 14.8021V2.90104ZM10 7.40625L18.15 1.85938H1.875L10 7.40625ZM1.625 2.90104V3.08333V2.26302V2.30208V1.85938V2.27604V2.23698V3.08333V2.90104V15.1406V14.8021V2.90104Z" fill="white"/>
</svg>
