<svg width="32" height="32" viewBox="0 0 32 32" fill="none" xmlns="http://www.w3.org/2000/svg">
<path fill-rule="evenodd" clip-rule="evenodd" d="M16 1.3335C7.90107 1.3335 1.33334 7.90123 1.33334 16.0002C1.33334 23.4098 6.83187 29.5184 13.9672 30.5099V20.1406H10.5279V16.1556H13.9672V13.2179C13.9672 9.80789 16.0484 7.9511 19.0903 7.9511C20.5496 7.9511 21.8007 8.05963 22.1644 8.10656V11.6706L20.0553 11.672C18.4009 11.672 18.0827 12.4582 18.0827 13.611V16.1542H22.028L21.5117 20.1391H18.0812V30.5026C25.1931 29.4891 30.6667 23.3922 30.6667 16.0002C30.6667 7.90123 24.0989 1.3335 16 1.3335Z" fill="white"/>
</svg>
