<svg width="20" height="18" viewBox="0 0 20 18" fill="none" xmlns="http://www.w3.org/2000/svg">
<path d="M9.025 17.2865L7.875 16.1667C5.875 14.2569 4.14583 12.434 2.6875 10.6979C1.22917 8.96181 0.5 7.16493 0.5 5.30729C0.5 3.88368 0.9625 2.6901 1.8875 1.72656C2.8125 0.763021 3.95833 0.28125 5.325 0.28125C6.09167 0.28125 6.8875 0.485243 7.7125 0.893229C8.5375 1.30122 9.3 2.05208 10 3.14583C10.75 2.05208 11.5208 1.30122 12.3125 0.893229C13.1042 0.485243 13.8917 0.28125 14.675 0.28125C16.0417 0.28125 17.1875 0.763021 18.1125 1.72656C19.0375 2.6901 19.5 3.88368 19.5 5.30729C19.5 7.18229 18.7542 8.99219 17.2625 10.737C15.7708 12.4818 14.0583 14.2917 12.125 16.1667L10.975 17.2604C10.6917 17.5208 10.3667 17.651 10 17.651C9.63333 17.651 9.30833 17.5295 9.025 17.2865ZM9.5 4.47396C8.98333 3.50174 8.35833 2.75521 7.625 2.23437C6.89167 1.71354 6.125 1.45312 5.325 1.45312C4.24167 1.45312 3.35417 1.81771 2.6625 2.54687C1.97083 3.27604 1.625 4.19618 1.625 5.30729C1.625 6.22743 1.89583 7.17361 2.4375 8.14583C2.97917 9.11806 3.65833 10.0859 4.475 11.0495C5.29167 12.013 6.175 12.9505 7.125 13.862C8.075 14.7734 8.96667 15.6198 9.8 16.401C9.85 16.4531 9.91667 16.4792 10 16.4792C10.0833 16.4792 10.15 16.4531 10.2 16.401C11.0333 15.6372 11.925 14.7951 12.875 13.875C13.825 12.9549 14.7083 12.013 15.525 11.0495C16.3417 10.0859 17.0208 9.11372 17.5625 8.13281C18.1042 7.15191 18.375 6.21007 18.375 5.30729C18.375 4.19618 18.025 3.27604 17.325 2.54687C16.625 1.81771 15.7417 1.45312 14.675 1.45312C13.8583 1.45312 13.0875 1.7092 12.3625 2.22135C11.6375 2.73351 11.0083 3.48438 10.475 4.47396C10.4083 4.57812 10.3333 4.65625 10.25 4.70833C10.1667 4.76042 10.075 4.78646 9.975 4.78646C9.875 4.78646 9.78333 4.76042 9.7 4.70833C9.61667 4.65625 9.55 4.57812 9.5 4.47396Z" fill="white"/>
</svg>
