<svg width="24" height="24" viewBox="0 0 24 24" fill="none" xmlns="http://www.w3.org/2000/svg">
<path d="M9.425 12.55V8.25L12 6.55L14.575 8.25V12.55H13.1V9.825H10.9V12.55H9.425ZM12 20.3C14.1833 18.35 15.8333 16.4958 16.95 14.7375C18.0667 12.9792 18.625 11.4667 18.625 10.2C18.625 8.2 17.9875 6.5625 16.7125 5.2875C15.4375 4.0125 13.8667 3.375 12 3.375C10.1333 3.375 8.5625 4.0125 7.2875 5.2875C6.0125 6.5625 5.375 8.2 5.375 10.2C5.375 11.4667 5.94167 12.9792 7.075 14.7375C8.20833 16.4958 9.85 18.35 12 20.3ZM12 21.8C9.4 19.5333 7.45833 17.4333 6.175 15.5C4.89167 13.5667 4.25 11.8 4.25 10.2C4.25 7.78333 5.02917 5.85417 6.5875 4.4125C8.14583 2.97083 9.95 2.25 12 2.25C14.05 2.25 15.8542 2.97083 17.4125 4.4125C18.9708 5.85417 19.75 7.78333 19.75 10.2C19.75 11.8 19.1083 13.5667 17.825 15.5C16.5417 17.4333 14.6 19.5333 12 21.8Z" fill="#3A5295"/>
</svg>
