<svg width="32" height="32" viewBox="0 0 32 32" fill="none" xmlns="http://www.w3.org/2000/svg">
<path fill-rule="evenodd" clip-rule="evenodd" d="M24.1062 12.9422C24.115 13.1035 24.115 13.2736 24.115 13.4438C24.115 18.5815 20.202 24.5112 13.0476 24.5112C10.8534 24.5112 8.80305 23.8644 7.10171 22.7512C7.40825 22.7923 7.71478 22.8084 8.02865 22.8084C9.85171 22.8084 11.531 22.188 12.8613 21.1467C11.16 21.1144 9.72265 19.9939 9.23131 18.4436C9.47331 18.492 9.71531 18.517 9.96465 18.517C10.321 18.517 10.6672 18.4686 10.9913 18.3791C9.20785 18.0168 7.86878 16.4519 7.86878 14.5643V14.5159C8.39238 14.8063 8.98931 14.9838 9.62731 14.9999C8.57865 14.3062 7.89225 13.1123 7.89225 11.7644C7.89225 11.056 8.08585 10.3858 8.41731 9.81229C10.3357 12.1692 13.2001 13.7166 16.4356 13.8794C16.3622 13.5963 16.33 13.2971 16.33 12.9906C16.33 10.8448 18.0724 9.10389 20.2181 9.10389C21.3386 9.10389 22.3477 9.57029 23.0576 10.33C23.9449 10.1526 24.775 9.82989 25.526 9.38549C25.237 10.2963 24.624 11.056 23.8158 11.54C24.6064 11.4432 25.3573 11.2335 26.0496 10.9255C25.526 11.7087 24.8645 12.3936 24.1062 12.9422ZM16 1.3335C7.89813 1.3335 1.33333 7.89976 1.33333 16.0002C1.33333 24.0991 7.89813 30.6668 16 30.6668C24.0989 30.6668 30.6667 24.0991 30.6667 16.0002C30.6667 7.89976 24.0989 1.3335 16 1.3335Z" fill="white"/>
</svg>
